<svg xmlns="http://www.w3.org/2000/svg" viewBox="0 0 480 110" fill="none" stroke="currentColor" aria-label="akrobacja.com — Extra 300L">
  <!-- Plane icon (top view) -->
  <g stroke-width="3" stroke-linecap="round" stroke-linejoin="round">
    <line x1="55" y1="8" x2="55" y2="22"/>
    <line x1="47" y1="12" x2="63" y2="15"/>
    <line x1="63" y1="12" x2="47" y2="15"/>
    <path d="M51 22 L55 17 L59 22 Z"/>
    <path d="M50 22 Q55 18 60 22 L61 52 L61 72 L59 86 L55 90 L51 86 L49 72 L49 52 Z"/>
    <ellipse cx="55" cy="42" rx="3.5" ry="9"/>
    <path d="M7 46 L49 38 L49 56 L7 52 Z"/>
    <path d="M103 46 L61 38 L61 56 L103 52 Z"/>
    <path d="M28 78 L51 72 L51 82 L28 88 Z"/>
    <path d="M82 78 L59 72 L59 82 L82 88 Z"/>
    <line x1="55" y1="65" x2="55" y2="88"/>
  </g>
  <!-- Wordmark -->
  <g fill="currentColor" stroke="none">
    <text x="128" y="72" font-family="Montserrat, 'Helvetica Neue', Arial, sans-serif" font-weight="800" font-size="52" letter-spacing="-1">akrobacja<tspan fill="currentColor" opacity="0.55">.com</tspan></text>
  </g>
</svg>
