<svg xmlns="http://www.w3.org/2000/svg" viewBox="0 0 360 120" fill="currentColor" aria-label="Extra 300L side silhouette">
  <!-- Propeller disc (motion-blur rectangle) -->
  <rect x="8" y="28" width="3" height="64" rx="1.5" opacity="0.35"/>
  <!-- Spinner cone -->
  <path d="M12 60 L28 44 L28 76 Z"/>
  <!-- Main body: engine cowl → bubble canopy → tapered tail cone -->
  <path d="
    M28 44
    L58 40
    L92 32
    Q118 18 150 16
    Q182 14 200 24
    L230 42
    L295 46
    L308 44
    L308 70
    L295 70
    L230 74
    L200 76
    Q175 82 150 82
    Q118 84 92 80
    L58 76
    L28 72
    Z
  "/>
  <!-- Canopy frame (distinct line across the bubble) -->
  <path d="M92 32 Q130 16 175 16 Q195 17 225 31" fill="none" stroke="white" stroke-width="1.2" opacity="0.55"/>
  <!-- Mid-wing silhouette visible below fuselage -->
  <path d="M100 62 L82 106 L196 106 L182 62 Z"/>
  <!-- Main gear leg + wheel fairing (left) -->
  <path d="M112 72 L100 104 L120 104 Z"/>
  <ellipse cx="110" cy="108" rx="10" ry="4"/>
  <!-- Main gear leg + wheel fairing (right) -->
  <path d="M168 72 L180 104 L160 104 Z"/>
  <ellipse cx="170" cy="108" rx="10" ry="4"/>
  <!-- Vertical stabilizer -->
  <path d="M276 46 L298 10 L322 10 Q330 22 330 46 Z"/>
  <!-- Horizontal stabilizer -->
  <path d="M295 60 L352 52 L352 66 L295 74 Z"/>
  <!-- Tail wheel -->
  <rect x="312" y="72" width="3" height="12"/>
  <ellipse cx="313.5" cy="86" rx="5" ry="2"/>
</svg>
