<svg xmlns="http://www.w3.org/2000/svg" viewBox="0 0 240 90" fill="none" stroke="currentColor" stroke-width="2.5" stroke-linecap="round" stroke-linejoin="round" aria-label="Extra 300L">
  <!-- Propeller arc -->
  <line x1="8" y1="30" x2="8" y2="56"/>
  <line x1="4" y1="34" x2="12" y2="52"/>
  <line x1="12" y1="34" x2="4" y2="52"/>
  <!-- Fuselage outline (top + bottom + spinner) -->
  <path d="M10 43
           Q6 38 12 34
           L40 32
           L85 28
           Q105 12 140 18
           L175 32
           L205 38
           L195 16
           L218 16
           L228 42
           L228 46
           L218 46
           L210 34
           L205 44
           L175 46
           L140 48
           Q105 60 85 54
           L40 50
           L12 48
           Q6 44 10 43 Z"/>
  <!-- Canopy frame line -->
  <path d="M92 22 Q115 14 140 20"/>
  <!-- Mid-wing (extending below fuselage) -->
  <path d="M88 42 L74 76 L168 76 L155 42"/>
  <!-- Wing struts visible as small marks -->
  <line x1="100" y1="52" x2="96" y2="74"/>
  <line x1="148" y1="52" x2="152" y2="74"/>
  <!-- Main landing gear (fixed, fairings) -->
  <path d="M105 50 L98 82"/>
  <path d="M143 50 L150 82"/>
  <!-- Wheels -->
  <ellipse cx="98" cy="83" rx="5" ry="2.5"/>
  <ellipse cx="150" cy="83" rx="5" ry="2.5"/>
  <!-- Tail wheel (tailwheel aircraft) -->
  <path d="M218 50 L222 64"/>
  <ellipse cx="222" cy="65" rx="3" ry="1.5"/>
</svg>
