<svg xmlns="http://www.w3.org/2000/svg" viewBox="0 0 64 64">
  <rect width="64" height="64" rx="12" fill="#0A1428"/>
  <g transform="translate(32 32) rotate(-44) scale(0.36)" fill="#fff">
    <path d="M 78,0 L 40,-13 L -68,-13 L -68,13 L 40,13 Z"/>
    <path d="M -8,-13 L 22,-13 L 22,-66 L 4,-62 L -20,-13 Z"/>
    <path d="M -8,13  L 22,13  L 22,66  L 4,62  L -20,13  Z"/>
    <path d="M -48,-10 L -40,-10 L -40,-40 L -62,-36 Z"/>
    <path d="M -48,10  L -40,10  L -40,40  L -62,36  Z"/>
    <path d="M -68,0 L -56,-46 L -46,-13 Z"/>
    <ellipse cx="26" cy="0" rx="22" ry="10" fill="#C41E3A"/>
    <circle cx="72" cy="0" r="18" fill="#fff" opacity="0.4"/>
  </g>
</svg>
