<svg xmlns="http://www.w3.org/2000/svg" viewBox="0 0 1000 900" width="100%" height="100%">
  
  <defs>
    <linearGradient id="navy" x1="0" x2="1" y1="0" y2="0">
      <stop offset="0" stop-color="#0A2A6E"></stop>
      <stop offset=".5" stop-color="#1640AE"></stop>
      <stop offset="1" stop-color="#0A2A6E"></stop>
    </linearGradient>
    <linearGradient id="canopy" x1="0" x2="0" y1="0" y2="1">
      <stop offset="0" stop-color="#1A2540"></stop>
      <stop offset=".4" stop-color="#0B1428"></stop>
      <stop offset="1" stop-color="#070F1A"></stop>
    </linearGradient>
    <radialGradient id="prop" cx=".5" cy=".5" r=".5">
      <stop offset="0" stop-color="#FFF" stop-opacity="0"></stop>
      <stop offset=".75" stop-color="#FFF" stop-opacity=".18"></stop>
      <stop offset="1" stop-color="#FFF" stop-opacity="0"></stop>
    </radialGradient>
  </defs>

  
  <ellipse cx="500" cy="80" rx="190" ry="28" fill="url(#prop)"></ellipse>
  <line x1="320" y1="80" x2="680" y2="80" stroke="#E8E8E8" stroke-width="3" opacity=".55" stroke-linecap="round"></line>

  
  <g id="wing">
    
    <path d="M 500 280&#xA;             L 30 295&#xA;             L 25 460&#xA;             L 500 510&#xA;             Z" fill="#FFFFFF" stroke="#0A2A6E" stroke-width="3" stroke-linejoin="round"></path>
    
    <path d="M 500 280&#xA;             L 30 295&#xA;             L 25 320&#xA;             L 110 318&#xA;             L 500 305&#xA;             Z" fill="#0A2A6E"></path>
    
    <path d="M 30 295 L 25 460 L 70 458 L 75 297 Z" fill="#0A2A6E"></path>
    
    <path d="M 500 510 L 25 460 L 25 470 L 500 520 Z" fill="#0A2A6E" opacity=".9"></path>
    
    <line x1="120" y1="430" x2="495" y2="490" stroke="#0A2A6E" stroke-width="1.2" opacity=".55"></line>
    
    <path d="M 360 295&#xA;             L 470 305&#xA;             L 440 320&#xA;             L 470 320&#xA;             L 430 340&#xA;             L 460 340&#xA;             L 410 365&#xA;             L 350 360&#xA;             L 380 340&#xA;             L 350 340&#xA;             L 380 320&#xA;             L 350 320&#xA;             Z" fill="#0A2A6E" opacity=".95"></path>

    
    <path d="M 500 280&#xA;             L 970 295&#xA;             L 975 460&#xA;             L 500 510&#xA;             Z" fill="#FFFFFF" stroke="#0A2A6E" stroke-width="3" stroke-linejoin="round"></path>
    <path d="M 500 280&#xA;             L 970 295&#xA;             L 975 320&#xA;             L 890 318&#xA;             L 500 305&#xA;             Z" fill="#0A2A6E"></path>
    <path d="M 970 295 L 975 460 L 930 458 L 925 297 Z" fill="#0A2A6E"></path>
    <path d="M 500 510 L 975 460 L 975 470 L 500 520 Z" fill="#0A2A6E" opacity=".9"></path>
    <line x1="880" y1="430" x2="505" y2="490" stroke="#0A2A6E" stroke-width="1.2" opacity=".55"></line>
    <path d="M 640 295&#xA;             L 530 305&#xA;             L 560 320&#xA;             L 530 320&#xA;             L 570 340&#xA;             L 540 340&#xA;             L 590 365&#xA;             L 650 360&#xA;             L 620 340&#xA;             L 650 340&#xA;             L 620 320&#xA;             L 650 320&#xA;             Z" fill="#0A2A6E" opacity=".95"></path>
  </g>

  
  <g id="hstab">
    
    <path d="M 500 760&#xA;             L 360 778&#xA;             L 355 818&#xA;             L 500 815&#xA;             Z" fill="#FFFFFF" stroke="#0A2A6E" stroke-width="2.5" stroke-linejoin="round"></path>
    <path d="M 500 760 L 360 778 L 360 786 L 500 770 Z" fill="#0A2A6E"></path>
    <path d="M 360 778 L 355 818 L 372 815 L 375 780 Z" fill="#0A2A6E"></path>
    <line x1="375" y1="800" x2="498" y2="795" stroke="#0A2A6E" stroke-width="1" opacity=".5"></line>

    
    <path d="M 500 760&#xA;             L 640 778&#xA;             L 645 818&#xA;             L 500 815&#xA;             Z" fill="#FFFFFF" stroke="#0A2A6E" stroke-width="2.5" stroke-linejoin="round"></path>
    <path d="M 500 760 L 640 778 L 640 786 L 500 770 Z" fill="#0A2A6E"></path>
    <path d="M 640 778 L 645 818 L 628 815 L 625 780 Z" fill="#0A2A6E"></path>
    <line x1="625" y1="800" x2="502" y2="795" stroke="#0A2A6E" stroke-width="1" opacity=".5"></line>
  </g>

  
  <g id="fuselage">
    <path d="M 500 110&#xA;             C 478 112, 472 130, 472 150&#xA;             L 472 240&#xA;             C 472 260, 470 275, 470 290&#xA;             L 470 540&#xA;             C 470 600, 478 690, 488 760&#xA;             L 492 820&#xA;             L 494 840&#xA;             L 500 845&#xA;             L 506 840&#xA;             L 508 820&#xA;             L 512 760&#xA;             C 522 690, 530 600, 530 540&#xA;             L 530 290&#xA;             C 530 275, 528 260, 528 240&#xA;             L 528 150&#xA;             C 528 130, 522 112, 500 110 Z" fill="url(#navy)" stroke="#03124A" stroke-width="2.5" stroke-linejoin="round"></path>

    
    <line x1="470" y1="170" x2="530" y2="170" stroke="#03124A" stroke-width="1.2" opacity=".5"></line>
    <line x1="470" y1="220" x2="530" y2="220" stroke="#03124A" stroke-width="1" opacity=".4"></line>
    
    <circle cx="488" cy="200" r="2.2" fill="#03124A"></circle>
    <circle cx="512" cy="200" r="2.2" fill="#03124A"></circle>

    
    <ellipse cx="500" cy="115" rx="16" ry="22" fill="#0A2A6E" stroke="#03124A" stroke-width="1.5"></ellipse>
    <ellipse cx="500" cy="110" rx="7" ry="10" fill="#3C5FBE" opacity=".75"></ellipse>

    
    <path d="M 500 295&#xA;             C 478 298, 466 320, 466 360&#xA;             L 466 510&#xA;             C 466 540, 478 555, 500 555&#xA;             C 522 555, 534 540, 534 510&#xA;             L 534 360&#xA;             C 534 320, 522 298, 500 295 Z" fill="url(#canopy)" stroke="#03124A" stroke-width="1.8"></path>
    
    <path d="M 478 320 C 472 380, 472 480, 484 540" fill="none" stroke="#FFFFFF" stroke-width="1.8" opacity=".28"></path>
    <line x1="466" y1="360" x2="534" y2="360" stroke="#FFF" stroke-width="1" opacity=".25"></line>
    <line x1="466" y1="500" x2="534" y2="500" stroke="#FFF" stroke-width="1" opacity=".2"></line>

    
    <path d="M 472 560 L 528 560 L 525 760 L 475 760" fill="none" stroke="#FFFFFF" stroke-width="2" opacity=".9"></path>
    <path d="M 478 580 L 522 580 L 519 745 L 481 745" fill="none" stroke="#FFFFFF" stroke-width="1" opacity=".4"></path>

    
    <text x="500" y="690" text-anchor="middle" font-family="Anton, Impact, sans-serif" font-size="22" letter-spacing="3" fill="#FFFFFF" font-weight="700">SP-EKS</text>
  </g>

  
  <path d="M 496 720 L 504 720 L 506 845 L 494 845 Z" fill="#03124A"></path>
  <line x1="500" y1="720" x2="500" y2="845" stroke="#FFFFFF" stroke-width="1" opacity=".4"></line>

  
  <text x="500" y="880" text-anchor="middle" font-family="JetBrains Mono, monospace" font-size="11" letter-spacing="6" fill="#0A2A6E" opacity=".55">EXTRA 300L · SP-EKS · TOP VIEW</text>
</svg>